REM DIRINDEX 1\2\4\18,1\2\4\19,1\2\5\20,1\2\5\21,1\2\6\22,1\2\7\23,1\2\8\24,1\2\8\25,1\2\9\26,1\2\10\27,1\3\11\28,1\3\11\29,1\3\11\30,1\3\11\31,1\3\12\32,1\3\12\33,1\3\12\34,1\3\12\35,1\3\13\36,1\3\13\37,1\3\14\38,1\3\14\39,1\3\15\40,1\3\15\41,1\3\15\42,1\3\16\43,1\3\16\44,1\3\17\45,1\3\17\46
REM DIRNAME folder01,folder02,folder03,folder04,folder05,folder06,folder07,folder08,folder09,folder10,folder11,folder12,folder13,folder14,folder15,folder16,folder17,folder18,folder19,folder20,folder21,folder22,folder23,folder24,folder25,folder26,folder27,folder28,folder29,folder30,folder31,folder32,folder33,folder34,folder35,folder36,folder37,folder38,folder39,folder40,folder41,folder42,folder43,folder44,folder45,folder46
TITLE ""
FILE "01.mp3" MP3
  TRACK 01 AUDIO
    TITLE "0:"
    INDEX 01 00:00:00
  TRACK 02 AUDIO
    TITLE "28:cjc024_2796"
    INDEX 01 00:00:13
  TRACK 03 AUDIO
    TITLE "0:"
    INDEX 01 00:01:26
  TRACK 04 AUDIO
    TITLE "29:cjc024_2797"
    INDEX 01 00:01:60
  TRACK 05 AUDIO
    TITLE "0:"
    INDEX 01 00:03:37
  TRACK 06 AUDIO
    TITLE "30:cjc024_2798"
    INDEX 01 00:04:03
  TRACK 07 AUDIO
    TITLE "0:"
    INDEX 01 00:06:04
  TRACK 08 AUDIO
    TITLE "31:cjc024_2799"
    INDEX 01 00:06:33
  TRACK 09 AUDIO
    TITLE "0:"
    INDEX 01 00:08:34
  TRACK 10 AUDIO
    TITLE "28:cjc024_2800"
    INDEX 01 00:09:36
  TRACK 11 AUDIO
    TITLE "0:"
    INDEX 01 00:10:43
  TRACK 12 AUDIO
    TITLE "29:cjc024_2801"
    INDEX 01 00:11:05
  TRACK 13 AUDIO
    TITLE "0:"
    INDEX 01 00:14:00
  TRACK 14 AUDIO
    TITLE "30:cjc024_2802"
    INDEX 01 00:14:41
  TRACK 15 AUDIO
    TITLE "0:"
    INDEX 01 00:17:02
  TRACK 16 AUDIO
    TITLE "31:cjc024_2803"
    INDEX 01 00:17:27
  TRACK 17 AUDIO
    TITLE "0:"
    INDEX 01 00:19:63
  TRACK 18 AUDIO
    TITLE "28:cjc024_2804"
    INDEX 01 00:20:65
  TRACK 19 AUDIO
    TITLE "0:"
    INDEX 01 00:22:01
  TRACK 20 AUDIO
    TITLE "29:cjc024_2805"
    INDEX 01 00:22:38
  TRACK 21 AUDIO
    TITLE "0:"
    INDEX 01 00:24:43
  TRACK 22 AUDIO
    TITLE "30:cjc024_2806"
    INDEX 01 00:25:05
  TRACK 23 AUDIO
    TITLE "0:"
    INDEX 01 00:26:69
  TRACK 24 AUDIO
    TITLE "31:cjc024_2807"
    INDEX 01 00:27:30
  TRACK 25 AUDIO
    TITLE "0:"
    INDEX 01 00:29:19
  TRACK 26 AUDIO
    TITLE "28:cjc024_2808"
    INDEX 01 00:30:30
  TRACK 27 AUDIO
    TITLE "0:"
    INDEX 01 00:31:45
  TRACK 28 AUDIO
    TITLE "29:cjc024_2809"
    INDEX 01 00:32:05
  TRACK 29 AUDIO
    TITLE "0:"
    INDEX 01 00:34:59
  TRACK 30 AUDIO
    TITLE "30:cjc024_2810"
    INDEX 01 00:35:21
  TRACK 31 AUDIO
    TITLE "0:"
    INDEX 01 00:37:56
  TRACK 32 AUDIO
    TITLE "31:cjc024_2811"
    INDEX 01 00:38:00
  TRACK 33 AUDIO
    TITLE "0:"
    INDEX 01 00:40:34
  TRACK 34 AUDIO
    TITLE "28:cjc024_2812"
    INDEX 01 00:41:32
  TRACK 35 AUDIO
    TITLE "0:"
    INDEX 01 00:42:53
  TRACK 36 AUDIO
    TITLE "29:cjc024_2813"
    INDEX 01 00:43:15
  TRACK 37 AUDIO
    TITLE "0:"
    INDEX 01 00:44:30
  TRACK 38 AUDIO
    TITLE "30:cjc024_2814"
    INDEX 01 00:44:67
  TRACK 39 AUDIO
    TITLE "0:"
    INDEX 01 00:46:53
  TRACK 40 AUDIO
    TITLE "31:cjc024_2815"
    INDEX 01 00:47:05
  TRACK 41 AUDIO
    TITLE "0:"
    INDEX 01 00:48:65
  TRACK 42 AUDIO
    TITLE "28:cjc024_2816"
    INDEX 01 00:49:69
  TRACK 43 AUDIO
    TITLE "0:"
    INDEX 01 00:51:09
  TRACK 44 AUDIO
    TITLE "29:cjc024_2817"
    INDEX 01 00:51:42
  TRACK 45 AUDIO
    TITLE "0:"
    INDEX 01 00:53:27
  TRACK 46 AUDIO
    TITLE "30:cjc024_2818"
    INDEX 01 00:53:64
  TRACK 47 AUDIO
    TITLE "0:"
    INDEX 01 00:56:00
  TRACK 48 AUDIO
    TITLE "31:cjc024_2819"
    INDEX 01 00:56:25
  TRACK 49 AUDIO
    TITLE "0:"
    INDEX 01 00:58:34
  TRACK 50 AUDIO
    TITLE "28:cjc024_2820"
    INDEX 01 00:59:38
  TRACK 51 AUDIO
    TITLE "0:"
    INDEX 01 01:00:66
  TRACK 52 AUDIO
    TITLE "29:cjc024_2821"
    INDEX 01 01:01:33
  TRACK 53 AUDIO
    TITLE "0:"
    INDEX 01 01:02:67
  TRACK 54 AUDIO
    TITLE "30:cjc024_2822"
    INDEX 01 01:03:29
  TRACK 55 AUDIO
    TITLE "0:"
    INDEX 01 01:05:28
  TRACK 56 AUDIO
    TITLE "31:cjc024_2823"
    INDEX 01 01:05:52
  TRACK 57 AUDIO
    TITLE "0:"
    INDEX 01 01:07:53
  TRACK 58 AUDIO
    TITLE "28:cjc024_2824"
    INDEX 01 01:08:48
  TRACK 59 AUDIO
    TITLE "0:"
    INDEX 01 01:09:56
  TRACK 60 AUDIO
    TITLE "29:cjc024_2825"
    INDEX 01 01:10:20
  TRACK 61 AUDIO
    TITLE "0:"
    INDEX 01 01:12:36
  TRACK 62 AUDIO
    TITLE "30:cjc024_2826"
    INDEX 01 01:13:00
  TRACK 63 AUDIO
    TITLE "0:"
    INDEX 01 01:15:39
  TRACK 64 AUDIO
    TITLE "31:cjc024_2827"
    INDEX 01 01:15:64
  TRACK 65 AUDIO
    TITLE "0:"
    INDEX 01 01:18:25
  TRACK 66 AUDIO
    TITLE "28:cjc024_2828"
    INDEX 01 01:19:27
  TRACK 67 AUDIO
    TITLE "0:"
    INDEX 01 01:20:16
  TRACK 68 AUDIO
    TITLE "29:cjc024_2829"
    INDEX 01 01:20:55
  TRACK 69 AUDIO
    TITLE "0:"
    INDEX 01 01:24:00
  TRACK 70 AUDIO
    TITLE "30:cjc024_2830"
    INDEX 01 01:24:36
  TRACK 71 AUDIO
    TITLE "0:"
    INDEX 01 01:26:70
  TRACK 72 AUDIO
    TITLE "31:cjc024_2831"
    INDEX 01 01:27:20
  TRACK 73 AUDIO
    TITLE "0:"
    INDEX 01 01:29:56
  TRACK 74 AUDIO
    TITLE "28:cjc024_2832"
    INDEX 01 01:30:56
  TRACK 75 AUDIO
    TITLE "0:"
    INDEX 01 01:31:69
  TRACK 76 AUDIO
    TITLE "29:cjc024_2833"
    INDEX 01 01:32:37
  TRACK 77 AUDIO
    TITLE "0:"
    INDEX 01 01:34:32
  TRACK 78 AUDIO
    TITLE "30:cjc024_2834"
    INDEX 01 01:35:00
  TRACK 79 AUDIO
    TITLE "0:"
    INDEX 01 01:36:70
  TRACK 80 AUDIO
    TITLE "31:cjc024_2835"
    INDEX 01 01:37:24
  TRACK 81 AUDIO
    TITLE "0:"
    INDEX 01 01:39:19
  TRACK 82 AUDIO
    TITLE "28:cjc024_2836"
    INDEX 01 01:40:27
  TRACK 83 AUDIO
    TITLE "0:"
    INDEX 01 01:41:36
  TRACK 84 AUDIO
    TITLE "29:cjc024_2837"
    INDEX 01 01:42:02
  TRACK 85 AUDIO
    TITLE "0:"
    INDEX 01 01:45:08
  TRACK 86 AUDIO
    TITLE "30:cjc024_2838"
    INDEX 01 01:45:45
  TRACK 87 AUDIO
    TITLE "0:"
    INDEX 01 01:48:30
  TRACK 88 AUDIO
    TITLE "31:cjc024_2839"
    INDEX 01 01:48:58
  TRACK 89 AUDIO
    TITLE "0:"
    INDEX 01 01:51:40
  TRACK 90 AUDIO
    TITLE "28:cjc024_2840"
    INDEX 01 01:52:40
  TRACK 91 AUDIO
    TITLE "0:"
    INDEX 01 01:53:41
  TRACK 92 AUDIO
    TITLE "29:cjc024_2841"
    INDEX 01 01:54:03
  TRACK 93 AUDIO
    TITLE "0:"
    INDEX 01 01:55:42
  TRACK 94 AUDIO
    TITLE "30:cjc024_2842"
    INDEX 01 01:56:24
  TRACK 95 AUDIO
    TITLE "0:"
    INDEX 01 01:58:09
  TRACK 96 AUDIO
    TITLE "31:cjc024_2843"
    INDEX 01 01:58:40
  TRACK 97 AUDIO
    TITLE "0:"
    INDEX 01 02:00:27
  TRACK 98 AUDIO
    TITLE "28:cjc024_2844"
    INDEX 01 02:01:33
  TRACK 99 AUDIO
    TITLE "0:"
    INDEX 01 02:02:42
  TRACK 100 AUDIO
    TITLE "29:cjc024_2845"
    INDEX 01 02:03:06
  TRACK 101 AUDIO
    TITLE "0:"
    INDEX 01 02:04:74
  TRACK 102 AUDIO
    TITLE "30:cjc024_2846"
    INDEX 01 02:05:34
  TRACK 103 AUDIO
    TITLE "0:"
    INDEX 01 02:07:04
  TRACK 104 AUDIO
    TITLE "31:cjc024_2847"
    INDEX 01 02:07:37
  TRACK 105 AUDIO
    TITLE "0:"
    INDEX 01 02:09:05
  TRACK 106 AUDIO
    TITLE "28:cjc024_2848"
    INDEX 01 02:10:16
  TRACK 107 AUDIO
    TITLE "0:"
    INDEX 01 02:11:21
  TRACK 108 AUDIO
    TITLE "29:cjc024_2849"
    INDEX 01 02:11:63
  TRACK 109 AUDIO
    TITLE "0:"
    INDEX 01 02:13:28
  TRACK 110 AUDIO
    TITLE "30:cjc024_2850"
    INDEX 01 02:13:67
  TRACK 111 AUDIO
    TITLE "0:"
    INDEX 01 02:15:27
  TRACK 112 AUDIO
    TITLE "31:cjc024_2851"
    INDEX 01 02:15:56
  TRACK 113 AUDIO
    TITLE "0:"
    INDEX 01 02:17:14
  TRACK 114 AUDIO
    TITLE "28:cjc024_2852"
    INDEX 01 02:18:18
  TRACK 115 AUDIO
    TITLE "0:"
    INDEX 01 02:19:42
  TRACK 116 AUDIO
    TITLE "29:cjc024_2853"
    INDEX 01 02:20:05
  TRACK 117 AUDIO
    TITLE "0:"
    INDEX 01 02:21:53
  TRACK 118 AUDIO
    TITLE "30:cjc024_2854"
    INDEX 01 02:22:13
  TRACK 119 AUDIO
    TITLE "0:"
    INDEX 01 02:23:72
  TRACK 120 AUDIO
    TITLE "31:cjc024_2855"
    INDEX 01 02:24:20
  TRACK 121 AUDIO
    TITLE "0:"
    INDEX 01 02:25:74
  TRACK 122 AUDIO
    TITLE "28:cjc024_2856"
    INDEX 01 02:26:72
  TRACK 123 AUDIO
    TITLE "0:"
    INDEX 01 02:27:69
  TRACK 124 AUDIO
    TITLE "29:cjc024_2857"
    INDEX 01 02:28:35
  TRACK 125 AUDIO
    TITLE "0:"
    INDEX 01 02:30:68
  TRACK 126 AUDIO
    TITLE "30:cjc024_2858"
    INDEX 01 02:31:30
  TRACK 127 AUDIO
    TITLE "0:"
    INDEX 01 02:33:23
  TRACK 128 AUDIO
    TITLE "31:cjc024_2859"
    INDEX 01 02:33:48
  TRACK 129 AUDIO
    TITLE "0:"
    INDEX 01 02:35:41
  TRACK 130 AUDIO
    TITLE "28:cjc024_2860"
    INDEX 01 02:36:41
  TRACK 131 AUDIO
    TITLE "0:"
    INDEX 01 02:37:54
  TRACK 132 AUDIO
    TITLE "29:cjc024_2861"
    INDEX 01 02:38:16
  TRACK 133 AUDIO
    TITLE "0:"
    INDEX 01 02:39:51
  TRACK 134 AUDIO
    TITLE "30:cjc024_2862"
    INDEX 01 02:40:15
  TRACK 135 AUDIO
    TITLE "0:"
    INDEX 01 02:41:62
  TRACK 136 AUDIO
    TITLE "31:cjc024_2863"
    INDEX 01 02:42:10
  TRACK 137 AUDIO
    TITLE "0:"
    INDEX 01 02:43:57
  TRACK 138 AUDIO
    TITLE "28:cjc024_2864"
    INDEX 01 02:44:56
  TRACK 139 AUDIO
    TITLE "0:"
    INDEX 01 02:45:67
  TRACK 140 AUDIO
    TITLE "29:cjc024_2865"
    INDEX 01 02:46:30
  TRACK 141 AUDIO
    TITLE "0:"
    INDEX 01 02:48:13
  TRACK 142 AUDIO
    TITLE "30:cjc024_2866"
    INDEX 01 02:48:52
  TRACK 143 AUDIO
    TITLE "0:"
    INDEX 01 02:50:16
  TRACK 144 AUDIO
    TITLE "31:cjc024_2867"
    INDEX 01 02:50:39
  TRACK 145 AUDIO
    TITLE "0:"
    INDEX 01 02:52:01
  TRACK 146 AUDIO
    TITLE "28:cjc024_2868"
    INDEX 01 02:53:00
  TRACK 147 AUDIO
    TITLE "0:"
    INDEX 01 02:54:09
  TRACK 148 AUDIO
    TITLE "29:cjc024_2869"
    INDEX 01 02:54:53
  TRACK 149 AUDIO
    TITLE "0:"
    INDEX 01 02:56:53
  TRACK 150 AUDIO
    TITLE "30:cjc024_2870"
    INDEX 01 02:57:20
  TRACK 151 AUDIO
    TITLE "0:"
    INDEX 01 02:59:07
  TRACK 152 AUDIO
    TITLE "31:cjc024_2871"
    INDEX 01 02:59:36
  TRACK 153 AUDIO
    TITLE "0:"
    INDEX 01 03:01:25
  TRACK 154 AUDIO
    TITLE "28:cjc024_2872"
    INDEX 01 03:02:27
  TRACK 155 AUDIO
    TITLE "0:"
    INDEX 01 03:03:36
  TRACK 156 AUDIO
    TITLE "29:cjc024_2873"
    INDEX 01 03:03:73
  TRACK 157 AUDIO
    TITLE "0:"
    INDEX 01 03:06:54
  TRACK 158 AUDIO
    TITLE "30:cjc024_2874"
    INDEX 01 03:07:18
  TRACK 159 AUDIO
    TITLE "0:"
    INDEX 01 03:09:25
  TRACK 160 AUDIO
    TITLE "31:cjc024_2875"
    INDEX 01 03:09:48
  TRACK 161 AUDIO
    TITLE "0:"
    INDEX 01 03:11:53
  TRACK 162 AUDIO
    TITLE "28:cjc024_2876"
    INDEX 01 03:12:52
  TRACK 163 AUDIO
    TITLE "0:"
    INDEX 01 03:13:69
  TRACK 164 AUDIO
    TITLE "29:cjc024_2877"
    INDEX 01 03:14:30
  TRACK 165 AUDIO
    TITLE "0:"
    INDEX 01 03:17:50
  TRACK 166 AUDIO
    TITLE "30:cjc024_2878"
    INDEX 01 03:18:10
  TRACK 167 AUDIO
    TITLE "0:"
    INDEX 01 03:21:06
  TRACK 168 AUDIO
    TITLE "31:cjc024_2879"
    INDEX 01 03:21:30
  TRACK 169 AUDIO
    TITLE "0:"
    INDEX 01 03:24:26
  TRACK 170 AUDIO
    TITLE "28:cjc024_2880"
    INDEX 01 03:25:28
  TRACK 171 AUDIO
    TITLE "0:"
    INDEX 01 03:26:37
  TRACK 172 AUDIO
    TITLE "29:cjc024_2881"
    INDEX 01 03:27:07
  TRACK 173 AUDIO
    TITLE "0:"
    INDEX 01 03:28:67
  TRACK 174 AUDIO
    TITLE "30:cjc024_2882"
    INDEX 01 03:29:29
  TRACK 175 AUDIO
    TITLE "0:"
    INDEX 01 03:31:44
  TRACK 176 AUDIO
    TITLE "31:cjc024_2883"
    INDEX 01 03:31:67
  TRACK 177 AUDIO
    TITLE "0:"
    INDEX 01 03:34:07
  TRACK 178 AUDIO
    TITLE "28:cjc024_2884"
    INDEX 01 03:35:04
  TRACK 179 AUDIO
    TITLE "0:"
    INDEX 01 03:36:20
  TRACK 180 AUDIO
    TITLE "29:cjc024_2885"
    INDEX 01 03:36:59
  TRACK 181 AUDIO
    TITLE "0:"
    INDEX 01 03:39:12
  TRACK 182 AUDIO
    TITLE "30:cjc024_2886"
    INDEX 01 03:39:51
  TRACK 183 AUDIO
    TITLE "0:"
    INDEX 01 03:41:72
  TRACK 184 AUDIO
    TITLE "31:cjc024_2887"
    INDEX 01 03:42:22
  TRACK 185 AUDIO
    TITLE "0:"
    INDEX 01 03:44:47
  TRACK 186 AUDIO
    TITLE "28:cjc024_2888"
    INDEX 01 03:45:46
  TRACK 187 AUDIO
    TITLE "0:"
    INDEX 01 03:46:57
  TRACK 188 AUDIO
    TITLE "29:cjc024_2889"
    INDEX 01 03:47:21
  TRACK 189 AUDIO
    TITLE "0:"
    INDEX 01 03:49:18
  TRACK 190 AUDIO
    TITLE "30:cjc024_2890"
    INDEX 01 03:49:56
  TRACK 191 AUDIO
    TITLE "0:"
    INDEX 01 03:51:31
  TRACK 192 AUDIO
    TITLE "31:cjc024_2891"
    INDEX 01 03:51:60
  TRACK 193 AUDIO
    TITLE "0:"
    INDEX 01 03:53:36
  TRACK 194 AUDIO
    TITLE "28:cjc024_2892"
    INDEX 01 03:54:41
  TRACK 195 AUDIO
    TITLE "0:"
    INDEX 01 03:55:48
  TRACK 196 AUDIO
    TITLE "29:cjc024_2893"
    INDEX 01 03:56:11
  TRACK 197 AUDIO
    TITLE "0:"
    INDEX 01 03:58:11
  TRACK 198 AUDIO
    TITLE "30:cjc024_2894"
    INDEX 01 03:58:51
  TRACK 199 AUDIO
    TITLE "0:"
    INDEX 01 04:00:26
  TRACK 200 AUDIO
    TITLE "31:cjc024_2895"
    INDEX 01 04:00:49
  TRACK 201 AUDIO
    TITLE "0:"
    INDEX 01 04:02:29
  TRACK 202 AUDIO
    TITLE "28:cjc024_2896"
    INDEX 01 04:03:28
  TRACK 203 AUDIO
    TITLE "0:"
    INDEX 01 04:04:43
  TRACK 204 AUDIO
    TITLE "29:cjc024_2897"
    INDEX 01 04:05:08
  TRACK 205 AUDIO
    TITLE "0:"
    INDEX 01 04:06:44
  TRACK 206 AUDIO
    TITLE "30:cjc024_2898"
    INDEX 01 04:07:08
  TRACK 207 AUDIO
    TITLE "0:"
    INDEX 01 04:08:69
  TRACK 208 AUDIO
    TITLE "31:cjc024_2899"
    INDEX 01 04:09:17
  TRACK 209 AUDIO
    TITLE "0:"
    INDEX 01 04:11:02
  TRACK 210 AUDIO
    TITLE "28:cjc024_2900"
    INDEX 01 04:12:06
  TRACK 211 AUDIO
    TITLE "0:"
    INDEX 01 04:13:19
  TRACK 212 AUDIO
    TITLE "29:cjc024_2901"
    INDEX 01 04:13:56
  TRACK 213 AUDIO
    TITLE "0:"
    INDEX 01 04:17:01
  TRACK 214 AUDIO
    TITLE "30:cjc024_2902"
    INDEX 01 04:17:38
  TRACK 215 AUDIO
    TITLE "0:"
    INDEX 01 04:20:60
  TRACK 216 AUDIO
    TITLE "31:cjc024_2903"
    INDEX 01 04:21:10
  TRACK 217 AUDIO
    TITLE "0:"
    INDEX 01 04:24:32
  TRACK 218 AUDIO
    TITLE "28:cjc024_2904"
    INDEX 01 04:25:32
  TRACK 219 AUDIO
    TITLE "0:"
    INDEX 01 04:26:39
  TRACK 220 AUDIO
    TITLE "29:cjc024_2905"
    INDEX 01 04:27:03
  TRACK 221 AUDIO
    TITLE "0:"
    INDEX 01 04:28:58
  TRACK 222 AUDIO
    TITLE "30:cjc024_2906"
    INDEX 01 04:29:18
  TRACK 223 AUDIO
    TITLE "0:"
    INDEX 01 04:31:07
  TRACK 224 AUDIO
    TITLE "31:cjc024_2907"
    INDEX 01 04:31:32
  TRACK 225 AUDIO
    TITLE "0:"
    INDEX 01 04:33:21
  TRACK 226 AUDIO
    TITLE "28:cjc024_2908"
    INDEX 01 04:34:23
  TRACK 227 AUDIO
    TITLE "0:"
    INDEX 01 04:35:34
  TRACK 228 AUDIO
    TITLE "29:cjc024_2909"
    INDEX 01 04:36:02
  TRACK 229 AUDIO
    TITLE "0:"
    INDEX 01 04:38:13
  TRACK 230 AUDIO
    TITLE "30:cjc024_2910"
    INDEX 01 04:38:48
  TRACK 231 AUDIO
    TITLE "0:"
    INDEX 01 04:40:24
  TRACK 232 AUDIO
    TITLE "31:cjc024_2911"
    INDEX 01 04:40:45
  TRACK 233 AUDIO
    TITLE "0:"
    INDEX 01 04:42:22
  TRACK 234 AUDIO
    TITLE "28:cjc024_2912"
    INDEX 01 04:43:20
  TRACK 235 AUDIO
    TITLE "0:"
    INDEX 01 04:44:27
  TRACK 236 AUDIO
    TITLE "29:cjc024_2913"
    INDEX 01 04:44:66
  TRACK 237 AUDIO
    TITLE "0:"
    INDEX 01 04:46:65
  TRACK 238 AUDIO
    TITLE "30:cjc024_2914"
    INDEX 01 04:47:27
  TRACK 239 AUDIO
    TITLE "0:"
    INDEX 01 04:49:24
  TRACK 240 AUDIO
    TITLE "31:cjc024_2915"
    INDEX 01 04:49:50
  TRACK 241 AUDIO
    TITLE "0:"
    INDEX 01 04:51:47
  TRACK 242 AUDIO
    TITLE "28:cjc024_2916"
    INDEX 01 04:52:48
  TRACK 243 AUDIO
    TITLE "0:"
    INDEX 01 04:53:59
  TRACK 244 AUDIO
    TITLE "29:cjc024_2917"
    INDEX 01 04:54:28
  TRACK 245 AUDIO
    TITLE "0:"
    INDEX 01 04:56:01
  TRACK 246 AUDIO
    TITLE "30:cjc024_2918"
    INDEX 01 04:56:40
  TRACK 247 AUDIO
    TITLE "0:"
    INDEX 01 04:58:33
  TRACK 248 AUDIO
    TITLE "31:cjc024_2919"
    INDEX 01 04:58:61
  TRACK 249 AUDIO
    TITLE "0:"
    INDEX 01 05:00:54
  TRACK 250 AUDIO
    TITLE "28:cjc024_2920"
    INDEX 01 05:01:51
  TRACK 251 AUDIO
    TITLE "0:"
    INDEX 01 05:02:64
  TRACK 252 AUDIO
    TITLE "29:cjc024_2921"
    INDEX 01 05:03:28
  TRACK 253 AUDIO
    TITLE "0:"
    INDEX 01 05:06:21
  TRACK 254 AUDIO
    TITLE "30:cjc024_2922"
    INDEX 01 05:06:58
  TRACK 255 AUDIO
    TITLE "0:"
    INDEX 01 05:09:23
  TRACK 256 AUDIO
    TITLE "31:cjc024_2923"
    INDEX 01 05:09:51
  TRACK 257 AUDIO
    TITLE "0:"
    INDEX 01 05:12:14
  TRACK 258 AUDIO
    TITLE "28:cjc024_2924"
    INDEX 01 05:13:21
  TRACK 259 AUDIO
    TITLE "0:"
    INDEX 01 05:14:26
  TRACK 260 AUDIO
    TITLE "29:cjc024_2925"
    INDEX 01 05:14:66
  TRACK 261 AUDIO
    TITLE "0:"
    INDEX 01 05:17:70
  TRACK 262 AUDIO
    TITLE "30:cjc024_2926"
    INDEX 01 05:18:36
  TRACK 263 AUDIO
    TITLE "0:"
    INDEX 01 05:20:66
  TRACK 264 AUDIO
    TITLE "31:cjc024_2927"
    INDEX 01 05:21:22
  TRACK 265 AUDIO
    TITLE "0:"
    INDEX 01 05:23:57
  TRACK 266 AUDIO
    TITLE "28:cjc024_2928"
    INDEX 01 05:24:60
  TRACK 267 AUDIO
    TITLE "0:"
    INDEX 01 05:26:06
  TRACK 268 AUDIO
    TITLE "29:cjc024_2929"
    INDEX 01 05:26:47
  TRACK 269 AUDIO
    TITLE "0:"
    INDEX 01 05:28:21
  TRACK 270 AUDIO
    TITLE "30:cjc024_2930"
    INDEX 01 05:28:58
  TRACK 271 AUDIO
    TITLE "0:"
    INDEX 01 05:30:53
  TRACK 272 AUDIO
    TITLE "31:cjc024_2931"
    INDEX 01 05:31:03
  TRACK 273 AUDIO
    TITLE "0:"
    INDEX 01 05:32:73
  TRACK 274 AUDIO
    TITLE "28:cjc024_2932"
    INDEX 01 05:34:02
  TRACK 275 AUDIO
    TITLE "0:"
    INDEX 01 05:35:05
  TRACK 276 AUDIO
    TITLE "29:cjc024_2933"
    INDEX 01 05:35:44
  TRACK 277 AUDIO
    TITLE "0:"
    INDEX 01 05:39:16
  TRACK 278 AUDIO
    TITLE "30:cjc024_2934"
    INDEX 01 05:39:58
  TRACK 279 AUDIO
    TITLE "0:"
    INDEX 01 05:42:44
  TRACK 280 AUDIO
    TITLE "31:cjc024_2935"
    INDEX 01 05:42:70
  TRACK 281 AUDIO
    TITLE "0:"
    INDEX 01 05:45:56
  TRACK 282 AUDIO
    TITLE "28:cjc024_2936"
    INDEX 01 05:46:58
  TRACK 283 AUDIO
    TITLE "0:"
    INDEX 01 05:47:67
  TRACK 284 AUDIO
    TITLE "29:cjc024_2937"
    INDEX 01 05:48:31
  TRACK 285 AUDIO
    TITLE "0:"
    INDEX 01 05:51:26
  TRACK 286 AUDIO
    TITLE "30:cjc024_2938"
    INDEX 01 05:51:73
  TRACK 287 AUDIO
    TITLE "0:"
    INDEX 01 05:55:10
  TRACK 288 AUDIO
    TITLE "31:cjc024_2939"
    INDEX 01 05:55:33
  TRACK 289 AUDIO
    TITLE "0:"
    INDEX 01 05:58:45
  TRACK 290 AUDIO
    TITLE "28:cjc024_2940"
    INDEX 01 05:59:51
  TRACK 291 AUDIO
    TITLE "0:"
    INDEX 01 06:00:48
  TRACK 292 AUDIO
    TITLE "29:cjc024_2941"
    INDEX 01 06:01:12
  TRACK 293 AUDIO
    TITLE "0:"
    INDEX 01 06:03:11
  TRACK 294 AUDIO
    TITLE "30:cjc024_2942"
    INDEX 01 06:03:52
  TRACK 295 AUDIO
    TITLE "0:"
    INDEX 01 06:05:53
  TRACK 296 AUDIO
    TITLE "31:cjc024_2943"
    INDEX 01 06:06:06
  TRACK 297 AUDIO
    TITLE "0:"
    INDEX 01 06:08:04
  TRACK 298 AUDIO
    TITLE "28:cjc024_2944"
    INDEX 01 06:09:06
  TRACK 299 AUDIO
    TITLE "0:"
    INDEX 01 06:10:07
  TRACK 300 AUDIO
    TITLE "29:cjc024_2945"
    INDEX 01 06:10:46
  TRACK 301 AUDIO
    TITLE "0:"
    INDEX 01 06:12:43
  TRACK 302 AUDIO
    TITLE "30:cjc024_2946"
    INDEX 01 06:13:08
  TRACK 303 AUDIO
    TITLE "0:"
    INDEX 01 06:14:44
  TRACK 304 AUDIO
    TITLE "31:cjc024_2947"
    INDEX 01 06:14:72
  TRACK 305 AUDIO
    TITLE "0:"
    INDEX 01 06:16:35
  TRACK 306 AUDIO
    TITLE "28:cjc024_2948"
    INDEX 01 06:17:41
  TRACK 307 AUDIO
    TITLE "0:"
    INDEX 01 06:18:48
  TRACK 308 AUDIO
    TITLE "29:cjc024_2949"
    INDEX 01 06:19:14
  TRACK 309 AUDIO
    TITLE "0:"
    INDEX 01 06:21:38
  TRACK 310 AUDIO
    TITLE "30:cjc024_2950"
    INDEX 01 06:22:05
  TRACK 311 AUDIO
    TITLE "0:"
    INDEX 01 06:24:29
  TRACK 312 AUDIO
    TITLE "31:cjc024_2951"
    INDEX 01 06:24:58
  TRACK 313 AUDIO
    TITLE "0:"
    INDEX 01 06:27:10
  TRACK 314 AUDIO
    TITLE "28:cjc024_2952"
    INDEX 01 06:28:09
  TRACK 315 AUDIO
    TITLE "0:"
    INDEX 01 06:29:10
  TRACK 316 AUDIO
    TITLE "29:cjc024_2953"
    INDEX 01 06:29:50
  TRACK 317 AUDIO
    TITLE "0:"
    INDEX 01 06:31:21
  TRACK 318 AUDIO
    TITLE "30:cjc024_2954"
    INDEX 01 06:31:60
  TRACK 319 AUDIO
    TITLE "0:"
    INDEX 01 06:33:36
  TRACK 320 AUDIO
    TITLE "31:cjc024_2955"
    INDEX 01 06:33:61
  TRACK 321 AUDIO
    TITLE "0:"
    INDEX 01 06:35:37
  TRACK 322 AUDIO
    TITLE "28:cjc024_2956"
    INDEX 01 06:36:36
  TRACK 323 AUDIO
    TITLE "0:"
    INDEX 01 06:37:39
  TRACK 324 AUDIO
    TITLE "29:cjc024_2957"
    INDEX 01 06:38:06
  TRACK 325 AUDIO
    TITLE "0:"
    INDEX 01 06:40:16
  TRACK 326 AUDIO
    TITLE "30:cjc024_2958"
    INDEX 01 06:40:55
  TRACK 327 AUDIO
    TITLE "0:"
    INDEX 01 06:42:60
  TRACK 328 AUDIO
    TITLE "31:cjc024_2959"
    INDEX 01 06:43:13
  TRACK 329 AUDIO
    TITLE "0:"
    INDEX 01 06:45:15
  TRACK 330 AUDIO
    TITLE "28:cjc024_2960"
    INDEX 01 06:46:15
  TRACK 331 AUDIO
    TITLE "0:"
    INDEX 01 06:47:14
  TRACK 332 AUDIO
    TITLE "29:cjc024_2961"
    INDEX 01 06:47:57
  TRACK 333 AUDIO
    TITLE "0:"
    INDEX 01 06:49:21
  TRACK 334 AUDIO
    TITLE "30:cjc024_2962"
    INDEX 01 06:49:58
  TRACK 335 AUDIO
    TITLE "0:"
    INDEX 01 06:51:28
  TRACK 336 AUDIO
    TITLE "31:cjc024_2963"
    INDEX 01 06:51:47
  TRACK 337 AUDIO
    TITLE "0:"
    INDEX 01 06:53:17
  TRACK 338 AUDIO
    TITLE "28:cjc024_2964"
    INDEX 01 06:54:12
  TRACK 339 AUDIO
    TITLE "0:"
    INDEX 01 06:55:39
  TRACK 340 AUDIO
    TITLE "29:cjc024_2965"
    INDEX 01 06:56:03
  TRACK 341 AUDIO
    TITLE "0:"
    INDEX 01 06:58:18
  TRACK 342 AUDIO
    TITLE "30:cjc024_2966"
    INDEX 01 06:58:57
  TRACK 343 AUDIO
    TITLE "0:"
    INDEX 01 07:00:54
  TRACK 344 AUDIO
    TITLE "31:cjc024_2967"
    INDEX 01 07:01:14
  TRACK 345 AUDIO
    TITLE "0:"
    INDEX 01 07:03:11
  TRACK 346 AUDIO
    TITLE "28:cjc024_2968"
    INDEX 01 07:04:23
  TRACK 347 AUDIO
    TITLE "0:"
    INDEX 01 07:05:38
  TRACK 348 AUDIO
    TITLE "29:cjc024_2969"
    INDEX 01 07:05:73
  TRACK 349 AUDIO
    TITLE "0:"
    INDEX 01 07:08:22
  TRACK 350 AUDIO
    TITLE "30:cjc024_2970"
    INDEX 01 07:08:61
  TRACK 351 AUDIO
    TITLE "0:"
    INDEX 01 07:11:07
  TRACK 352 AUDIO
    TITLE "31:cjc024_2971"
    INDEX 01 07:11:30
  TRACK 353 AUDIO
    TITLE "0:"
    INDEX 01 07:13:51
  TRACK 354 AUDIO
    TITLE "28:cjc024_2972"
    INDEX 01 07:14:50
  TRACK 355 AUDIO
    TITLE "0:"
    INDEX 01 07:15:63
  TRACK 356 AUDIO
    TITLE "29:cjc024_2973"
    INDEX 01 07:16:30
  TRACK 357 AUDIO
    TITLE "0:"
    INDEX 01 07:17:72
  TRACK 358 AUDIO
    TITLE "30:cjc024_2974"
    INDEX 01 07:18:38
  TRACK 359 AUDIO
    TITLE "0:"
    INDEX 01 07:20:24
  TRACK 360 AUDIO
    TITLE "31:cjc024_2975"
    INDEX 01 07:20:51
  TRACK 361 AUDIO
    TITLE "0:"
    INDEX 01 07:22:34
  TRACK 362 AUDIO
    TITLE "28:cjc024_2976"
    INDEX 01 07:23:38
  TRACK 363 AUDIO
    TITLE "0:"
    INDEX 01 07:24:60
  TRACK 364 AUDIO
    TITLE "29:cjc024_2977"
    INDEX 01 07:25:25
  TRACK 365 AUDIO
    TITLE "0:"
    INDEX 01 07:27:27
  TRACK 366 AUDIO
    TITLE "30:cjc024_2978"
    INDEX 01 07:27:69
  TRACK 367 AUDIO
    TITLE "0:"
    INDEX 01 07:30:00
  TRACK 368 AUDIO
    TITLE "31:cjc024_2979"
    INDEX 01 07:30:32
  TRACK 369 AUDIO
    TITLE "0:"
    INDEX 01 07:32:38
  TRACK 370 AUDIO
    TITLE "28:cjc024_2980"
    INDEX 01 07:33:40
  TRACK 371 AUDIO
    TITLE "0:"
    INDEX 01 07:34:53
  TRACK 372 AUDIO
    TITLE "29:cjc024_2981"
    INDEX 01 07:35:15
  TRACK 373 AUDIO
    TITLE "0:"
    INDEX 01 07:37:61
  TRACK 374 AUDIO
    TITLE "30:cjc024_2982"
    INDEX 01 07:38:23
  TRACK 375 AUDIO
    TITLE "0:"
    INDEX 01 07:40:73
  TRACK 376 AUDIO
    TITLE "31:cjc024_2983"
    INDEX 01 07:41:28
  TRACK 377 AUDIO
    TITLE "0:"
    INDEX 01 07:44:00
  TRACK 378 AUDIO
    TITLE "28:cjc024_2984"
    INDEX 01 07:45:02
  TRACK 379 AUDIO
    TITLE "0:"
    INDEX 01 07:46:15
  TRACK 380 AUDIO
    TITLE "29:cjc024_2985"
    INDEX 01 07:46:52
  TRACK 381 AUDIO
    TITLE "0:"
    INDEX 01 07:48:63
  TRACK 382 AUDIO
    TITLE "30:cjc024_2986"
    INDEX 01 07:49:25
  TRACK 383 AUDIO
    TITLE "0:"
    INDEX 01 07:51:04
  TRACK 384 AUDIO
    TITLE "31:cjc024_2987"
    INDEX 01 07:51:30
  TRACK 385 AUDIO
    TITLE "0:"
    INDEX 01 07:53:09
  TRACK 386 AUDIO
    TITLE "28:cjc024_2988"
    INDEX 01 07:54:13
  TRACK 387 AUDIO
    TITLE "0:"
    INDEX 01 07:55:18
  TRACK 388 AUDIO
    TITLE "29:cjc024_2989"
    INDEX 01 07:55:55
  TRACK 389 AUDIO
    TITLE "0:"
    INDEX 01 07:57:07
  TRACK 390 AUDIO
    TITLE "30:cjc024_2990"
    INDEX 01 07:57:42
  TRACK 391 AUDIO
    TITLE "0:"
    INDEX 01 07:59:24
  TRACK 392 AUDIO
    TITLE "31:cjc024_2991"
    INDEX 01 07:59:45
  TRACK 393 AUDIO
    TITLE "0:"
    INDEX 01 08:01:24
  TRACK 394 AUDIO
    TITLE "28:cjc024_2992"
    INDEX 01 08:02:30
  TRACK 395 AUDIO
    TITLE "0:"
    INDEX 01 08:03:37
  TRACK 396 AUDIO
    TITLE "29:cjc024_2993"
    INDEX 01 08:03:74
  TRACK 397 AUDIO
    TITLE "0:"
    INDEX 01 08:05:38
  TRACK 398 AUDIO
    TITLE "30:cjc024_2994"
    INDEX 01 08:06:00
  TRACK 399 AUDIO
    TITLE "0:"
    INDEX 01 08:07:47
  TRACK 400 AUDIO
    TITLE "31:cjc024_2995"
    INDEX 01 08:07:68
  TRACK 401 AUDIO
    TITLE "0:"
    INDEX 01 08:09:40
  TRACK 402 AUDIO
    TITLE "28:cjc024_2996"
    INDEX 01 08:10:35
  TRACK 403 AUDIO
    TITLE "0:"
    INDEX 01 08:11:46
  TRACK 404 AUDIO
    TITLE "29:cjc024_2997"
    INDEX 01 08:12:11
  TRACK 405 AUDIO
    TITLE "0:"
    INDEX 01 08:14:19
  TRACK 406 AUDIO
    TITLE "30:cjc024_2998"
    INDEX 01 08:14:58
  TRACK 407 AUDIO
    TITLE "0:"
    INDEX 01 08:16:44
  TRACK 408 AUDIO
    TITLE "31:cjc024_2999"
    INDEX 01 08:16:67
  TRACK 409 AUDIO
    TITLE "0:"
    INDEX 01 08:18:52
  TRACK 410 AUDIO
    TITLE "28:cjc024_3000"
    INDEX 01 08:19:54
  TRACK 411 AUDIO
    TITLE "0:"
    INDEX 01 08:20:57
  TRACK 412 AUDIO
    TITLE "29:cjc024_3001"
    INDEX 01 08:21:21
  TRACK 413 AUDIO
    TITLE "0:"
    INDEX 01 08:23:10
  TRACK 414 AUDIO
    TITLE "30:cjc024_3002"
    INDEX 01 08:23:50
  TRACK 415 AUDIO
    TITLE "0:"
    INDEX 01 08:25:45
  TRACK 416 AUDIO
    TITLE "31:cjc024_3003"
    INDEX 01 08:25:70
  TRACK 417 AUDIO
    TITLE "0:"
    INDEX 01 08:27:69
  TRACK 418 AUDIO
    TITLE "28:cjc024_3004"
    INDEX 01 08:28:68
  TRACK 419 AUDIO
    TITLE "0:"
    INDEX 01 08:29:74
  TRACK 420 AUDIO
    TITLE "29:cjc024_3005"
    INDEX 01 08:30:36
  TRACK 421 AUDIO
    TITLE "0:"
    INDEX 01 08:33:32
  TRACK 422 AUDIO
    TITLE "30:cjc024_3006"
    INDEX 01 08:33:68
  TRACK 423 AUDIO
    TITLE "0:"
    INDEX 01 08:36:17
  TRACK 424 AUDIO
    TITLE "31:cjc024_3007"
    INDEX 01 08:36:40
  TRACK 425 AUDIO
    TITLE "0:"
    INDEX 01 08:38:71
  TRACK 426 AUDIO
    TITLE "28:cjc024_3008"
    INDEX 01 08:39:68
  TRACK 427 AUDIO
    TITLE "0:"
    INDEX 01 08:41:00
  TRACK 428 AUDIO
    TITLE "29:cjc024_3009"
    INDEX 01 08:41:42
  TRACK 429 AUDIO
    TITLE "0:"
    INDEX 01 08:43:50
  TRACK 430 AUDIO
    TITLE "30:cjc024_3010"
    INDEX 01 08:44:12
  TRACK 431 AUDIO
    TITLE "0:"
    INDEX 01 08:45:61
  TRACK 432 AUDIO
    TITLE "31:cjc024_3011"
    INDEX 01 08:46:13
  TRACK 433 AUDIO
    TITLE "0:"
    INDEX 01 08:47:64
  TRACK 434 AUDIO
    TITLE "28:cjc024_3012"
    INDEX 01 08:48:63
  TRACK 435 AUDIO
    TITLE "0:"
    INDEX 01 08:49:70
  TRACK 436 AUDIO
    TITLE "29:cjc024_3013"
    INDEX 01 08:50:35
  TRACK 437 AUDIO
    TITLE "0:"
    INDEX 01 08:52:41
  TRACK 438 AUDIO
    TITLE "30:cjc024_3014"
    INDEX 01 08:53:06
  TRACK 439 AUDIO
    TITLE "0:"
    INDEX 01 08:54:68
  TRACK 440 AUDIO
    TITLE "31:cjc024_3015"
    INDEX 01 08:55:24
  TRACK 441 AUDIO
    TITLE "0:"
    INDEX 01 08:57:11
  TRACK 442 AUDIO
    TITLE "28:cjc024_3016"
    INDEX 01 08:58:18
  TRACK 443 AUDIO
    TITLE "0:"
    INDEX 01 08:59:12
  TRACK 444 AUDIO
    TITLE "29:cjc024_3017"
    INDEX 01 08:59:51
  TRACK 445 AUDIO
    TITLE "0:"
    INDEX 01 09:04:05
  TRACK 446 AUDIO
    TITLE "30:cjc024_3018"
    INDEX 01 09:04:45
  TRACK 447 AUDIO
    TITLE "0:"
    INDEX 01 09:07:19
  TRACK 448 AUDIO
    TITLE "31:cjc024_3019"
    INDEX 01 09:07:43
  TRACK 449 AUDIO
    TITLE "0:"
    INDEX 01 09:10:20
  TRACK 450 AUDIO
    TITLE "28:cjc024_3020"
    INDEX 01 09:11:19
  TRACK 451 AUDIO
    TITLE "0:"
    INDEX 01 09:12:32
  TRACK 452 AUDIO
    TITLE "29:cjc024_3021"
    INDEX 01 09:12:72
  TRACK 453 AUDIO
    TITLE "0:"
    INDEX 01 09:14:63
  TRACK 454 AUDIO
    TITLE "30:cjc024_3022"
    INDEX 01 09:15:25
  TRACK 455 AUDIO
    TITLE "0:"
    INDEX 01 09:16:65
  TRACK 456 AUDIO
    TITLE "31:cjc024_3023"
    INDEX 01 09:17:18
  TRACK 457 AUDIO
    TITLE "0:"
    INDEX 01 09:18:56
  TRACK 458 AUDIO
    TITLE "28:cjc024_3024"
    INDEX 01 09:19:60
  TRACK 459 AUDIO
    TITLE "0:"
    INDEX 01 09:21:06
  TRACK 460 AUDIO
    TITLE "29:cjc024_3025"
    INDEX 01 09:21:41
  TRACK 461 AUDIO
    TITLE "0:"
    INDEX 01 09:24:24
  TRACK 462 AUDIO
    TITLE "30:cjc024_3026"
    INDEX 01 09:24:59
  TRACK 463 AUDIO
    TITLE "0:"
    INDEX 01 09:27:12
  TRACK 464 AUDIO
    TITLE "31:cjc024_3027"
    INDEX 01 09:27:38
  TRACK 465 AUDIO
    TITLE "0:"
    INDEX 01 09:29:64
  TRACK 466 AUDIO
    TITLE "28:cjc024_3028"
    INDEX 01 09:30:66
  TRACK 467 AUDIO
    TITLE "0:"
    INDEX 01 09:31:69
  TRACK 468 AUDIO
    TITLE "29:cjc024_3029"
    INDEX 01 09:32:33
  TRACK 469 AUDIO
    TITLE "0:"
    INDEX 01 09:34:20
  TRACK 470 AUDIO
    TITLE "30:cjc024_3030"
    INDEX 01 09:34:57
  TRACK 471 AUDIO
    TITLE "0:"
    INDEX 01 09:36:35
  TRACK 472 AUDIO
    TITLE "31:cjc024_3031"
    INDEX 01 09:36:60
  TRACK 473 AUDIO
    TITLE "0:"
    INDEX 01 09:38:38
  TRACK 474 AUDIO
    TITLE "28:cjc024_3032"
    INDEX 01 09:39:37
  TRACK 475 AUDIO
    TITLE "0:"
    INDEX 01 09:40:52
  TRACK 476 AUDIO
    TITLE "29:cjc024_3033"
    INDEX 01 09:41:12
  TRACK 477 AUDIO
    TITLE "0:"
    INDEX 01 09:42:63
  TRACK 478 AUDIO
    TITLE "30:cjc024_3034"
    INDEX 01 09:43:23
  TRACK 479 AUDIO
    TITLE "0:"
    INDEX 01 09:44:70
  TRACK 480 AUDIO
    TITLE "31:cjc024_3035"
    INDEX 01 09:45:18
  TRACK 481 AUDIO
    TITLE "0:"
    INDEX 01 09:46:65
  TRACK 482 AUDIO
    TITLE "28:cjc024_3036"
    INDEX 01 09:47:62
  TRACK 483 AUDIO
    TITLE "0:"
    INDEX 01 09:48:67
  TRACK 484 AUDIO
    TITLE "29:cjc024_3037"
    INDEX 01 09:49:33
  TRACK 485 AUDIO
    TITLE "0:"
    INDEX 01 09:52:02
  TRACK 486 AUDIO
    TITLE "30:cjc024_3038"
    INDEX 01 09:52:44
  TRACK 487 AUDIO
    TITLE "0:"
    INDEX 01 09:54:54
  TRACK 488 AUDIO
    TITLE "31:cjc024_3039"
    INDEX 01 09:55:15
  TRACK 489 AUDIO
    TITLE "0:"
    INDEX 01 09:57:27
  TRACK 490 AUDIO
    TITLE "28:cjc024_3040"
    INDEX 01 09:58:36
  TRACK 491 AUDIO
    TITLE "0:"
    INDEX 01 09:59:51
  TRACK 492 AUDIO
    TITLE "29:cjc024_3041"
    INDEX 01 10:00:16
  TRACK 493 AUDIO
    TITLE "0:"
    INDEX 01 10:01:54
  TRACK 494 AUDIO
    TITLE "30:cjc024_3042"
    INDEX 01 10:02:26
  TRACK 495 AUDIO
    TITLE "0:"
    INDEX 01 10:04:12
  TRACK 496 AUDIO
    TITLE "31:cjc024_3043"
    INDEX 01 10:04:45
  TRACK 497 AUDIO
    TITLE "0:"
    INDEX 01 10:06:26
  TRACK 498 AUDIO
    TITLE "28:cjc024_3044"
    INDEX 01 10:07:35
  TRACK 499 AUDIO
    TITLE "0:"
    INDEX 01 10:08:58
  TRACK 500 AUDIO
    TITLE "29:cjc024_3045"
    INDEX 01 10:09:21
  TRACK 501 AUDIO
    TITLE "0:"
    INDEX 01 10:10:71
  TRACK 502 AUDIO
    TITLE "30:cjc024_3046"
    INDEX 01 10:11:33
  TRACK 503 AUDIO
    TITLE "0:"
    INDEX 01 10:13:12
  TRACK 504 AUDIO
    TITLE "31:cjc024_3047"
    INDEX 01 10:13:56
  TRACK 505 AUDIO
    TITLE "0:"
    INDEX 01 10:15:35
  TRACK 506 AUDIO
    TITLE "28:cjc024_3048"
    INDEX 01 10:16:48
  TRACK 507 AUDIO
    TITLE "0:"
    INDEX 01 10:17:47
  TRACK 508 AUDIO
    TITLE "29:cjc024_3049"
    INDEX 01 10:18:12
  TRACK 509 AUDIO
    TITLE "0:"
    INDEX 01 10:19:74
  TRACK 510 AUDIO
    TITLE "30:cjc024_3050"
    INDEX 01 10:20:36
  TRACK 511 AUDIO
    TITLE "0:"
    INDEX 01 10:21:69
  TRACK 512 AUDIO
    TITLE "31:cjc024_3051"
    INDEX 01 10:22:17
  TRACK 513 AUDIO
    TITLE "0:"
    INDEX 01 10:23:50
  TRACK 514 AUDIO
    TITLE "28:cjc024_3052"
    INDEX 01 10:24:51
  TRACK 515 AUDIO
    TITLE "0:"
    INDEX 01 10:26:01
  TRACK 516 AUDIO
    TITLE "29:cjc024_3053"
    INDEX 01 10:26:42
  TRACK 517 AUDIO
    TITLE "0:"
    INDEX 01 10:28:73
  TRACK 518 AUDIO
    TITLE "30:cjc024_3054"
    INDEX 01 10:29:33
  TRACK 519 AUDIO
    TITLE "0:"
    INDEX 01 10:31:42
  TRACK 520 AUDIO
    TITLE "31:cjc024_3055"
    INDEX 01 10:31:65
  TRACK 521 AUDIO
    TITLE "0:"
    INDEX 01 10:33:72
  TRACK 522 AUDIO
    TITLE "28:cjc024_3056"
    INDEX 01 10:35:00
  TRACK 523 AUDIO
    TITLE "0:"
    INDEX 01 10:36:13
  TRACK 524 AUDIO
    TITLE "29:cjc024_3057"
    INDEX 01 10:36:51
  TRACK 525 AUDIO
    TITLE "0:"
    INDEX 01 10:38:46
  TRACK 526 AUDIO
    TITLE "30:cjc024_3058"
    INDEX 01 10:39:04
  TRACK 527 AUDIO
    TITLE "0:"
    INDEX 01 10:40:62
  TRACK 528 AUDIO
    TITLE "31:cjc024_3059"
    INDEX 01 10:41:09
  TRACK 529 AUDIO
    TITLE "0:"
    INDEX 01 10:42:63
  TRACK 530 AUDIO
    TITLE "28:cjc024_3060"
    INDEX 01 10:43:63
  TRACK 531 AUDIO
    TITLE "0:"
    INDEX 01 10:44:74
  TRACK 532 AUDIO
    TITLE "29:cjc024_3061"
    INDEX 01 10:45:36
  TRACK 533 AUDIO
    TITLE "0:"
    INDEX 01 10:47:03
  TRACK 534 AUDIO
    TITLE "30:cjc024_3062"
    INDEX 01 10:47:43
  TRACK 535 AUDIO
    TITLE "0:"
    INDEX 01 10:49:24
  TRACK 536 AUDIO
    TITLE "31:cjc024_3063"
    INDEX 01 10:49:53
  TRACK 537 AUDIO
    TITLE "0:"
    INDEX 01 10:51:39
  TRACK 538 AUDIO
    TITLE "28:cjc024_3064"
    INDEX 01 10:52:40
  TRACK 539 AUDIO
    TITLE "0:"
    INDEX 01 10:53:33
  TRACK 540 AUDIO
    TITLE "29:cjc024_3065"
    INDEX 01 10:53:73
  TRACK 541 AUDIO
    TITLE "0:"
    INDEX 01 10:56:00
  TRACK 542 AUDIO
    TITLE "30:cjc024_3066"
    INDEX 01 10:56:40
  TRACK 543 AUDIO
    TITLE "0:"
    INDEX 01 10:58:07
  TRACK 544 AUDIO
    TITLE "31:cjc024_3067"
    INDEX 01 10:58:35
  TRACK 545 AUDIO
    TITLE "0:"
    INDEX 01 11:00:02
  TRACK 546 AUDIO
    TITLE "28:cjc024_3068"
    INDEX 01 11:01:06
  TRACK 547 AUDIO
    TITLE "0:"
    INDEX 01 11:02:19
  TRACK 548 AUDIO
    TITLE "29:cjc024_3069"
    INDEX 01 11:02:56
  TRACK 549 AUDIO
    TITLE "0:"
    INDEX 01 11:04:35
  TRACK 550 AUDIO
    TITLE "30:cjc024_3070"
    INDEX 01 11:04:72
  TRACK 551 AUDIO
    TITLE "0:"
    INDEX 01 11:06:42
  TRACK 552 AUDIO
    TITLE "31:cjc024_3071"
    INDEX 01 11:06:66
  TRACK 553 AUDIO
    TITLE "0:"
    INDEX 01 11:08:35
  TRACK 554 AUDIO
    TITLE "28:cjc024_3072"
    INDEX 01 11:09:33
  TRACK 555 AUDIO
    TITLE "0:"
    INDEX 01 11:10:48
  TRACK 556 AUDIO
    TITLE "29:cjc024_3073"
    INDEX 01 11:11:10
  TRACK 557 AUDIO
    TITLE "0:"
    INDEX 01 11:13:44
  TRACK 558 AUDIO
    TITLE "30:cjc024_3074"
    INDEX 01 11:14:10
  TRACK 559 AUDIO
    TITLE "0:"
    INDEX 01 11:16:35
  TRACK 560 AUDIO
    TITLE "31:cjc024_3075"
    INDEX 01 11:16:58
  TRACK 561 AUDIO
    TITLE "0:"
    INDEX 01 11:19:07
  TRACK 562 AUDIO
    TITLE "28:cjc024_3076"
    INDEX 01 11:20:07
  TRACK 563 AUDIO
    TITLE "0:"
    INDEX 01 11:21:10
  TRACK 564 AUDIO
    TITLE "29:cjc024_3077"
    INDEX 01 11:21:47
  TRACK 565 AUDIO
    TITLE "0:"
    INDEX 01 11:24:38
  TRACK 566 AUDIO
    TITLE "30:cjc024_3078"
    INDEX 01 11:25:00
  TRACK 567 AUDIO
    TITLE "0:"
    INDEX 01 11:27:36
  TRACK 568 AUDIO
    TITLE "31:cjc024_3079"
    INDEX 01 11:27:62
  TRACK 569 AUDIO
    TITLE "0:"
    INDEX 01 11:30:21
  TRACK 570 AUDIO
    TITLE "28:cjc024_3080"
    INDEX 01 11:31:20
  TRACK 571 AUDIO
    TITLE "0:"
    INDEX 01 11:32:30
  TRACK 572 AUDIO
    TITLE "29:cjc024_3081"
    INDEX 01 11:32:67
  TRACK 573 AUDIO
    TITLE "0:"
    INDEX 01 11:34:74
  TRACK 574 AUDIO
    TITLE "30:cjc024_3082"
    INDEX 01 11:35:36
  TRACK 575 AUDIO
    TITLE "0:"
    INDEX 01 11:37:03
  TRACK 576 AUDIO
    TITLE "31:cjc024_3083"
    INDEX 01 11:37:31
  TRACK 577 AUDIO
    TITLE "0:"
    INDEX 01 11:38:73
  TRACK 578 AUDIO
    TITLE "28:cjc024_3084"
    INDEX 01 11:40:00
  TRACK 579 AUDIO
    TITLE "0:"
    INDEX 01 11:41:34
  TRACK 580 AUDIO
    TITLE "29:cjc024_3085"
    INDEX 01 11:42:01
  TRACK 581 AUDIO
    TITLE "0:"
    INDEX 01 11:44:62
  TRACK 582 AUDIO
    TITLE "30:cjc024_3086"
    INDEX 01 11:45:24
  TRACK 583 AUDIO
    TITLE "0:"
    INDEX 01 11:47:33
  TRACK 584 AUDIO
    TITLE "31:cjc024_3087"
    INDEX 01 11:47:61
  TRACK 585 AUDIO
    TITLE "0:"
    INDEX 01 11:49:65
  TRACK 586 AUDIO
    TITLE "28:cjc024_3088"
    INDEX 01 11:50:67
  TRACK 587 AUDIO
    TITLE "0:"
    INDEX 01 11:52:05
  TRACK 588 AUDIO
    TITLE "29:cjc024_3089"
    INDEX 01 11:52:38
  TRACK 589 AUDIO
    TITLE "0:"
    INDEX 01 11:54:14
  TRACK 590 AUDIO
    TITLE "30:cjc024_3090"
    INDEX 01 11:54:51
  TRACK 591 AUDIO
    TITLE "0:"
    INDEX 01 11:56:16
  TRACK 592 AUDIO
    TITLE "31:cjc024_3091"
    INDEX 01 11:56:46
  TRACK 593 AUDIO
    TITLE "0:"
    INDEX 01 11:58:11
  TRACK 594 AUDIO
    TITLE "28:cjc024_3092"
    INDEX 01 11:59:15
  TRACK 595 AUDIO
    TITLE "0:"
    INDEX 01 12:00:34
  TRACK 596 AUDIO
    TITLE "29:cjc024_3093"
    INDEX 01 12:00:71
  TRACK 597 AUDIO
    TITLE "0:"
    INDEX 01 12:02:46
  TRACK 598 AUDIO
    TITLE "30:cjc024_3094"
    INDEX 01 12:03:11
  TRACK 599 AUDIO
    TITLE "0:"
    INDEX 01 12:04:71
  TRACK 600 AUDIO
    TITLE "31:cjc024_3095"
    INDEX 01 12:05:21
  TRACK 601 AUDIO
    TITLE "0:"
    INDEX 01 12:07:06
  TRACK 602 AUDIO
    TITLE "28:cjc024_3096"
    INDEX 01 12:08:10
  TRACK 603 AUDIO
    TITLE "0:"
    INDEX 01 12:09:31
  TRACK 604 AUDIO
    TITLE "29:cjc024_3097"
    INDEX 01 12:09:68
  TRACK 605 AUDIO
    TITLE "0:"
    INDEX 01 12:12:59
  TRACK 606 AUDIO
    TITLE "30:cjc024_3098"
    INDEX 01 12:13:25
  TRACK 607 AUDIO
    TITLE "0:"
    INDEX 01 12:15:61
  TRACK 608 AUDIO
    TITLE "31:cjc024_3099"
    INDEX 01 12:16:07
  TRACK 609 AUDIO
    TITLE "0:"
    INDEX 01 12:18:43
  TRACK 610 AUDIO
    TITLE "28:cjc024_3100"
    INDEX 01 12:19:45
  TRACK 611 AUDIO
    TITLE "0:"
    INDEX 01 12:20:52
  TRACK 612 AUDIO
    TITLE "29:cjc024_3101"
    INDEX 01 12:21:16
  TRACK 613 AUDIO
    TITLE "0:"
    INDEX 01 12:23:25
  TRACK 614 AUDIO
    TITLE "30:cjc024_3102"
    INDEX 01 12:23:64
  TRACK 615 AUDIO
    TITLE "0:"
    INDEX 01 12:26:08
  TRACK 616 AUDIO
    TITLE "31:cjc024_3103"
    INDEX 01 12:26:31
  TRACK 617 AUDIO
    TITLE "0:"
    INDEX 01 12:28:50
  TRACK 618 AUDIO
    TITLE "28:cjc024_3104"
    INDEX 01 12:29:47
  TRACK 619 AUDIO
    TITLE "0:"
    INDEX 01 12:30:60
  TRACK 620 AUDIO
    TITLE "29:cjc024_3105"
    INDEX 01 12:31:25
  TRACK 621 AUDIO
    TITLE "0:"
    INDEX 01 12:33:23
  TRACK 622 AUDIO
    TITLE "30:cjc024_3106"
    INDEX 01 12:33:63
  TRACK 623 AUDIO
    TITLE "0:"
    INDEX 01 12:35:34
  TRACK 624 AUDIO
    TITLE "31:cjc024_3107"
    INDEX 01 12:35:62
  TRACK 625 AUDIO
    TITLE "0:"
    INDEX 01 12:37:37
  TRACK 626 AUDIO
    TITLE "28:cjc024_3108"
    INDEX 01 12:38:36
  TRACK 627 AUDIO
    TITLE "0:"
    INDEX 01 12:39:50
  TRACK 628 AUDIO
    TITLE "29:cjc024_3109"
    INDEX 01 12:40:12
  TRACK 629 AUDIO
    TITLE "0:"
    INDEX 01 12:41:52
  TRACK 630 AUDIO
    TITLE "30:cjc024_3110"
    INDEX 01 12:42:17
  TRACK 631 AUDIO
    TITLE "0:"
    INDEX 01 12:43:61
  TRACK 632 AUDIO
    TITLE "31:cjc024_3111"
    INDEX 01 12:44:12
  TRACK 633 AUDIO
    TITLE "0:"
    INDEX 01 12:45:56
  TRACK 634 AUDIO
    TITLE "28:cjc024_3112"
    INDEX 01 12:46:55
  TRACK 635 AUDIO
    TITLE "0:"
    INDEX 01 12:48:00
  TRACK 636 AUDIO
    TITLE "29:cjc024_3113"
    INDEX 01 12:48:37
  TRACK 637 AUDIO
    TITLE "0:"
    INDEX 01 12:50:63
  TRACK 638 AUDIO
    TITLE "30:cjc024_3114"
    INDEX 01 12:51:31
  TRACK 639 AUDIO
    TITLE "0:"
    INDEX 01 12:53:32
  TRACK 640 AUDIO
    TITLE "31:cjc024_3115"
    INDEX 01 12:53:57
  TRACK 641 AUDIO
    TITLE "0:"
    INDEX 01 12:55:60
  TRACK 642 AUDIO
    TITLE "28:cjc024_3116"
    INDEX 01 12:56:60
  TRACK 643 AUDIO
    TITLE "0:"
    INDEX 01 12:57:63
  TRACK 644 AUDIO
    TITLE "29:cjc024_3117"
    INDEX 01 12:58:35
  TRACK 645 AUDIO
    TITLE "0:"
    INDEX 01 13:00:07
  TRACK 646 AUDIO
    TITLE "30:cjc024_3118"
    INDEX 01 13:00:46
  TRACK 647 AUDIO
    TITLE "0:"
    INDEX 01 13:02:15
  TRACK 648 AUDIO
    TITLE "31:cjc024_3119"
    INDEX 01 13:02:43
  TRACK 649 AUDIO
    TITLE "0:"
    INDEX 01 13:04:12
  TRACK 650 AUDIO
    TITLE "28:cjc024_3120"
    INDEX 01 13:05:14
  TRACK 651 AUDIO
    TITLE "0:"
    INDEX 01 13:06:31
  TRACK 652 AUDIO
    TITLE "29:cjc024_3121"
    INDEX 01 13:06:70
  TRACK 653 AUDIO
    TITLE "0:"
    INDEX 01 13:09:27
  TRACK 654 AUDIO
    TITLE "30:cjc024_3122"
    INDEX 01 13:09:68
  TRACK 655 AUDIO
    TITLE "0:"
    INDEX 01 13:12:35
  TRACK 656 AUDIO
    TITLE "31:cjc024_3123"
    INDEX 01 13:12:63
  TRACK 657 AUDIO
    TITLE "0:"
    INDEX 01 13:15:30
  TRACK 658 AUDIO
    TITLE "28:cjc024_3124"
    INDEX 01 13:16:27
  TRACK 659 AUDIO
    TITLE "0:"
    INDEX 01 13:17:42
  TRACK 660 AUDIO
    TITLE "29:cjc024_3125"
    INDEX 01 13:18:05
  TRACK 661 AUDIO
    TITLE "0:"
    INDEX 01 13:20:05
  TRACK 662 AUDIO
    TITLE "30:cjc024_3126"
    INDEX 01 13:20:45
  TRACK 663 AUDIO
    TITLE "0:"
    INDEX 01 13:22:14
  TRACK 664 AUDIO
    TITLE "31:cjc024_3127"
    INDEX 01 13:22:40
  TRACK 665 AUDIO
    TITLE "0:"
    INDEX 01 13:24:09
  TRACK 666 AUDIO
    TITLE "28:cjc024_3128"
    INDEX 01 13:25:09
  TRACK 667 AUDIO
    TITLE "0:"
    INDEX 01 13:25:73
  TRACK 668 AUDIO
    TITLE "29:cjc024_3129"
    INDEX 01 13:26:41
  TRACK 669 AUDIO
    TITLE "0:"
    INDEX 01 13:28:40
  TRACK 670 AUDIO
    TITLE "30:cjc024_3130"
    INDEX 01 13:29:02
  TRACK 671 AUDIO
    TITLE "0:"
    INDEX 01 13:30:37
  TRACK 672 AUDIO
    TITLE "31:cjc024_3131"
    INDEX 01 13:30:65
  TRACK 673 AUDIO
    TITLE "0:"
    INDEX 01 13:32:22
  TRACK 674 AUDIO
    TITLE "28:cjc024_3132"
    INDEX 01 13:33:26
  TRACK 675 AUDIO
    TITLE "0:"
    INDEX 01 13:34:19
  TRACK 676 AUDIO
    TITLE "29:cjc024_3133"
    INDEX 01 13:34:58
  TRACK 677 AUDIO
    TITLE "0:"
    INDEX 01 13:36:55
  TRACK 678 AUDIO
    TITLE "30:cjc024_3134"
    INDEX 01 13:37:20
  TRACK 679 AUDIO
    TITLE "0:"
    INDEX 01 13:39:07
  TRACK 680 AUDIO
    TITLE "31:cjc024_3135"
    INDEX 01 13:39:30
  TRACK 681 AUDIO
    TITLE "0:"
    INDEX 01 13:41:17
  TRACK 682 AUDIO
    TITLE "28:cjc024_3136"
    INDEX 01 13:42:21
  TRACK 683 AUDIO
    TITLE "0:"
    INDEX 01 13:43:32
  TRACK 684 AUDIO
    TITLE "29:cjc024_3137"
    INDEX 01 13:43:67
  TRACK 685 AUDIO
    TITLE "0:"
    INDEX 01 13:46:01
  TRACK 686 AUDIO
    TITLE "30:cjc024_3138"
    INDEX 01 13:46:36
  TRACK 687 AUDIO
    TITLE "0:"
    INDEX 01 13:48:02
  TRACK 688 AUDIO
    TITLE "31:cjc024_3139"
    INDEX 01 13:48:25
  TRACK 689 AUDIO
    TITLE "0:"
    INDEX 01 13:49:68
  TRACK 690 AUDIO
    TITLE "28:cjc024_3140"
    INDEX 01 13:50:65
  TRACK 691 AUDIO
    TITLE "0:"
    INDEX 01 13:52:01
  TRACK 692 AUDIO
    TITLE "29:cjc024_3141"
    INDEX 01 13:52:39
  TRACK 693 AUDIO
    TITLE "0:"
    INDEX 01 13:54:59
  TRACK 694 AUDIO
    TITLE "30:cjc024_3142"
    INDEX 01 13:55:19
  TRACK 695 AUDIO
    TITLE "0:"
    INDEX 01 13:56:72
  TRACK 696 AUDIO
    TITLE "31:cjc024_3143"
    INDEX 01 13:57:20
  TRACK 697 AUDIO
    TITLE "0:"
    INDEX 01 13:58:71
  TRACK 698 AUDIO
    TITLE "28:cjc024_3144"
    INDEX 01 13:59:70
  TRACK 699 AUDIO
    TITLE "0:"
    INDEX 01 14:01:26
  TRACK 700 AUDIO
    TITLE "29:cjc024_3145"
    INDEX 01 14:01:61
  TRACK 701 AUDIO
    TITLE "0:"
    INDEX 01 14:04:26
  TRACK 702 AUDIO
    TITLE "30:cjc024_3146"
    INDEX 01 14:04:63
  TRACK 703 AUDIO
    TITLE "0:"
    INDEX 01 14:07:27
  TRACK 704 AUDIO
    TITLE "31:cjc024_3147"
    INDEX 01 14:07:48
  TRACK 705 AUDIO
    TITLE "0:"
    INDEX 01 14:10:09
  TRACK 706 AUDIO
    TITLE "28:cjc024_3148"
    INDEX 01 14:11:09
  TRACK 707 AUDIO
    TITLE "0:"
    INDEX 01 14:12:14
  TRACK 708 AUDIO
    TITLE "29:cjc024_3149"
    INDEX 01 14:12:51
  TRACK 709 AUDIO
    TITLE "0:"
    INDEX 01 14:14:46
  TRACK 710 AUDIO
    TITLE "30:cjc024_3150"
    INDEX 01 14:15:12
  TRACK 711 AUDIO
    TITLE "0:"
    INDEX 01 14:17:15
  TRACK 712 AUDIO
    TITLE "31:cjc024_3151"
    INDEX 01 14:17:41
  TRACK 713 AUDIO
    TITLE "0:"
    INDEX 01 14:19:41
  TRACK 714 AUDIO
    TITLE "28:cjc024_3152"
    INDEX 01 14:20:43
  TRACK 715 AUDIO
    TITLE "0:"
    INDEX 01 14:21:44
  TRACK 716 AUDIO
    TITLE "29:cjc024_3153"
    INDEX 01 14:22:08
  TRACK 717 AUDIO
    TITLE "0:"
    INDEX 01 14:23:71
  TRACK 718 AUDIO
    TITLE "30:cjc024_3154"
    INDEX 01 14:24:33
  TRACK 719 AUDIO
    TITLE "0:"
    INDEX 01 14:26:00
  TRACK 720 AUDIO
    TITLE "31:cjc024_3155"
    INDEX 01 14:26:26
  TRACK 721 AUDIO
    TITLE "0:"
    INDEX 01 14:27:68
  TRACK 722 AUDIO
    TITLE "28:cjc024_3156"
    INDEX 01 14:28:70
  TRACK 723 AUDIO
    TITLE "0:"
    INDEX 01 14:30:06
  TRACK 724 AUDIO
    TITLE "29:cjc024_3157"
    INDEX 01 14:30:45
  TRACK 725 AUDIO
    TITLE "0:"
    INDEX 01 14:32:19
  TRACK 726 AUDIO
    TITLE "30:cjc024_3158"
    INDEX 01 14:32:58
  TRACK 727 AUDIO
    TITLE "0:"
    INDEX 01 14:34:45
  TRACK 728 AUDIO
    TITLE "31:cjc024_3159"
    INDEX 01 14:34:68
  TRACK 729 AUDIO
    TITLE "0:"
    INDEX 01 14:36:58
  TRACK 730 AUDIO
    TITLE "28:cjc024_3160"
    INDEX 01 14:37:57
  TRACK 731 AUDIO
    TITLE "0:"
    INDEX 01 14:38:72
  TRACK 732 AUDIO
    TITLE "29:cjc024_3161"
    INDEX 01 14:39:34
  TRACK 733 AUDIO
    TITLE "0:"
    INDEX 01 14:41:20
  TRACK 734 AUDIO
    TITLE "30:cjc024_3162"
    INDEX 01 14:41:57
  TRACK 735 AUDIO
    TITLE "0:"
    INDEX 01 14:43:40
  TRACK 736 AUDIO
    TITLE "31:cjc024_3163"
    INDEX 01 14:43:63
  TRACK 737 AUDIO
    TITLE "0:"
    INDEX 01 14:45:49
  TRACK 738 AUDIO
    TITLE "28:cjc024_3164"
    INDEX 01 14:46:46
  TRACK 739 AUDIO
    TITLE "0:"
    INDEX 01 14:47:57
  TRACK 740 AUDIO
    TITLE "29:cjc024_3165"
    INDEX 01 14:48:24
  TRACK 741 AUDIO
    TITLE "0:"
    INDEX 01 14:50:38
  TRACK 742 AUDIO
    TITLE "30:cjc024_3166"
    INDEX 01 14:51:00
  TRACK 743 AUDIO
    TITLE "0:"
    INDEX 01 14:53:17
  TRACK 744 AUDIO
    TITLE "31:cjc024_3167"
    INDEX 01 14:53:38
  TRACK 745 AUDIO
    TITLE "0:"
    INDEX 01 14:55:53
  TRACK 746 AUDIO
    TITLE "28:cjc024_3168"
    INDEX 01 14:56:50
  TRACK 747 AUDIO
    TITLE "0:"
    INDEX 01 14:57:62
  TRACK 748 AUDIO
    TITLE "29:cjc024_3169"
    INDEX 01 14:58:22
  TRACK 749 AUDIO
    TITLE "0:"
    INDEX 01 14:59:74
  TRACK 750 AUDIO
    TITLE "30:cjc024_3170"
    INDEX 01 15:00:38
  TRACK 751 AUDIO
    TITLE "0:"
    INDEX 01 15:02:14
  TRACK 752 AUDIO
    TITLE "31:cjc024_3171"
    INDEX 01 15:02:35
  TRACK 753 AUDIO
    TITLE "0:"
    INDEX 01 15:04:11
  TRACK 754 AUDIO
    TITLE "28:cjc024_3172"
    INDEX 01 15:05:08
  TRACK 755 AUDIO
    TITLE "0:"
    INDEX 01 15:06:14
  TRACK 756 AUDIO
    TITLE "29:cjc024_3173"
    INDEX 01 15:06:53
  TRACK 757 AUDIO
    TITLE "0:"
    INDEX 01 15:09:04
  TRACK 758 AUDIO
    TITLE "30:cjc024_3174"
    INDEX 01 15:09:43
  TRACK 759 AUDIO
    TITLE "0:"
    INDEX 01 15:11:27
  TRACK 760 AUDIO
    TITLE "31:cjc024_3175"
    INDEX 01 15:11:52
  TRACK 761 AUDIO
    TITLE "0:"
    INDEX 01 15:13:31
  TRACK 762 AUDIO
    TITLE "28:cjc024_3176"
    INDEX 01 15:14:35
  TRACK 763 AUDIO
    TITLE "0:"
    INDEX 01 15:15:52
  TRACK 764 AUDIO
    TITLE "29:cjc024_3177"
    INDEX 01 15:16:12
  TRACK 765 AUDIO
    TITLE "0:"
    INDEX 01 15:19:26
  TRACK 766 AUDIO
    TITLE "30:cjc024_3178"
    INDEX 01 15:19:61
  TRACK 767 AUDIO
    TITLE "0:"
    INDEX 01 15:22:13
  TRACK 768 AUDIO
    TITLE "31:cjc024_3179"
    INDEX 01 15:22:36
  TRACK 769 AUDIO
    TITLE "0:"
    INDEX 01 15:24:60
  TRACK 770 AUDIO
    TITLE "28:cjc024_3180"
    INDEX 01 15:25:64
  TRACK 771 AUDIO
    TITLE "0:"
    INDEX 01 15:26:65
  TRACK 772 AUDIO
    TITLE "29:cjc024_3181"
    INDEX 01 15:27:27
  TRACK 773 AUDIO
    TITLE "0:"
    INDEX 01 15:30:71
  TRACK 774 AUDIO
    TITLE "30:cjc024_3182"
    INDEX 01 15:31:33
  TRACK 775 AUDIO
    TITLE "0:"
    INDEX 01 15:34:02
  TRACK 776 AUDIO
    TITLE "31:cjc024_3183"
    INDEX 01 15:34:30
  TRACK 777 AUDIO
    TITLE "0:"
    INDEX 01 15:36:73
  TRACK 778 AUDIO
    TITLE "28:cjc024_3184"
    INDEX 01 15:38:00
  TRACK 779 AUDIO
    TITLE "0:"
    INDEX 01 15:39:03
  TRACK 780 AUDIO
    TITLE "29:cjc024_3185"
    INDEX 01 15:39:40
  TRACK 781 AUDIO
    TITLE "0:"
    INDEX 01 15:42:74
  TRACK 782 AUDIO
    TITLE "30:cjc024_3186"
    INDEX 01 15:43:34
  TRACK 783 AUDIO
    TITLE "0:"
    INDEX 01 15:45:65
  TRACK 784 AUDIO
    TITLE "31:cjc024_3187"
    INDEX 01 15:46:13
  TRACK 785 AUDIO
    TITLE "0:"
    INDEX 01 15:48:41
  TRACK 786 AUDIO
    TITLE "28:cjc024_3188"
    INDEX 01 15:49:43
  TRACK 787 AUDIO
    TITLE "0:"
    INDEX 01 15:50:60
  TRACK 788 AUDIO
    TITLE "29:cjc024_3189"
    INDEX 01 15:51:20
  TRACK 789 AUDIO
    TITLE "0:"
    INDEX 01 15:54:56
  TRACK 790 AUDIO
    TITLE "30:cjc024_3190"
    INDEX 01 15:55:22
  TRACK 791 AUDIO
    TITLE "0:"
    INDEX 01 15:57:33
  TRACK 792 AUDIO
    TITLE "31:cjc024_3191"
    INDEX 01 15:57:60
  TRACK 793 AUDIO
    TITLE "0:"
    INDEX 01 15:59:71
  TRACK 794 AUDIO
    TITLE "28:cjc024_3192"
    INDEX 01 16:00:72
  TRACK 795 AUDIO
    TITLE "0:"
    INDEX 01 16:02:10
  TRACK 796 AUDIO
    TITLE "29:cjc024_3193"
    INDEX 01 16:02:47
  TRACK 797 AUDIO
    TITLE "0:"
    INDEX 01 16:04:15
  TRACK 798 AUDIO
    TITLE "30:cjc024_3194"
    INDEX 01 16:04:50
  TRACK 799 AUDIO
    TITLE "0:"
    INDEX 01 16:06:24
  TRACK 800 AUDIO
    TITLE "31:cjc024_3195"
    INDEX 01 16:06:47
  TRACK 801 AUDIO
    TITLE "0:"
    INDEX 01 16:08:21
